<?xml version="1.0" encoding="utf-8"?>
<!-- Generator: Adobe Illustrator 27.3.1, SVG Export Plug-In . SVG Version: 6.00 Build 0)  -->
<svg version="1.1" id="Layer_1" xmlns="http://www.w3.org/2000/svg" xmlns:xlink="http://www.w3.org/1999/xlink" x="0px" y="0px"
	 viewBox="0 0 1080 1743" style="enable-background:new 0 0 1080 1743;" xml:space="preserve">
<style type="text/css">
	.st0{fill:#002FA6;}
	.st1{fill:#FFFFFF;}
</style>
<g>
	<path class="st1" d="M439.8,748.7c17.8-7,28-30.1,19.4-47.3c-4.5-9-36.3-27.6-36.3-27.6l-35,55.4
		C387.8,729.2,421.9,755.7,439.8,748.7z"/>
	<path class="st1" d="M380.9,848.5c17.8-7,28-30.1,19.4-47.3c-4.5-9-36.3-27.6-36.3-27.6L329,829C329,829,363.1,855.5,380.9,848.5z"
		/>
	<path class="st1" d="M280.1,921c18.4-5.2,30.8-27.2,24-45.1c-3.6-9.4-33.5-31-33.5-31l-40.3,51.7
		C230.3,896.5,261.7,926.2,280.1,921z"/>
	<path class="st1" d="M593.5,73.6c8.2-3.5-5.4-40.2-12.5-59.3c-2.9-7.7-9.6-15.4-17.7-14.2c-3.2,0.5-6.1,2.4-8.2,4.9
		c-5.6,6.6-5.5,16.5-2.1,24.5C556.3,37.4,585.3,77.2,593.5,73.6z"/>
	<path class="st1" d="M1079.6,1529.4c-0.5-5.4-1.7-10.9-5.1-15.1c-11.3-14.5-35.7-3.3-49,7.6c-13.3,10.9-29.9,18.9-56.2,23.6
		c-26.3,4.7-55,5.1-78.2-8.4c-23.1-13.4-37.6-44.3-25.6-68.2c2.7-5.4,6-10.6,7.4-16.5c6.4-25.6,0.5-35.7-28.9-23.3
		c-13,5.5-27.4,7.1-41.5,7.6c-22.2,0.9-43-13.8-54.3-32.9c-11.4-19.1-14.8-41.9-15.5-64.1c-0.8-27-0.5-59.3-23.2-73.9
		c-8.4-5.4-18.7-7-28.7-6.5c0,0,0,0,0,0c-24.2-58-43.8-108.8-45.9-123.1c-3.7-25.3,3.8-54,11.2-81.8c4.7-18.1,9.7-36.7,11.3-54
		c10.1-109.3-32.2-204-77.1-304.3l-6.3-14c-4-9-8.2-17.5-12.6-25.4c-14-25.4-34.6-37.8-61.2-37c-2,0.1-3.9,0.2-5.8,0.4
		c-6.3-14.3-15.1-33.5-25.7-54.8c41.9-42.1,80.4-93,117.9-142.4c50-66,101.7-134.3,161.4-181.7c1.1-0.9,1.6-2.2,1.5-3.5
		c-0.1-0.7-0.3-1.3-0.8-1.9l0.2-0.3c-0.1,0.1-0.2,0.1-0.3,0.2c-0.4-0.5-0.9-0.9-1.4-1.1c-13.9-6.5-28.8-12.1-45.6-17.1
		c-0.1,0-0.2-0.1-0.3-0.1c5.6-27.1,12.9-53.8,22-79.9c8.2-23.5,16.9-52.4,0.3-71c-14.2-15.9-41.3-14-58.2-1
		c-16.9,13-22.9,30.6-31.4,54.5c-11.9-10.4-22-32.2-31.6-21.6c-9.5,10.6,19.9,35.3,22,61.7c1.1,13,1.2,26.3,0.1,39.7
		c-5.3-1-15.9-2.8-30.4-5.3C521.5,181.8,351,152.8,317.9,130c-1.3-0.9-3.1-0.9-4.4,0c-1.3,0.9-2,2.6-1.6,4.1
		c4.1,17.3,8.2,34.9,12.4,52.8c18.2,77.9,37.9,161.9,60.6,243.1c-30.1-34.9-56.9-48.7-80.1-41.1c-14.3,4.7-24.3,14.1-29.5,27.9
		c-19.3,50.7,30.1,147.9,45.8,176.6c-7-1.3-17.3-2.4-28.8-0.5c-33,5.5-60,36.9-61.2,70c-27.5-1.9-52.3,6.4-68.7,23
		c-17.3,17.5-24.9,43.5-22.1,75.4c0,0,0,0-0.1,0c-20.3,0-45.7,17.3-57.1,52.4c-6.9,21.2-6,50.5,2.4,87.1
		c20.9,90.3,61.3,146.8,173.3,241.9c8.8,7.4,18.5,14.2,27.8,20.8c23.2,16.2,45.1,31.5,54.5,56.1c5.9,15.5,19.7,78.5,21.8,95.7
		c6.5,52.3,17.8,114.5,24.2,134.3c-7.1-3.6-13.9-7.9-20.2-12.8c-15.2-11.9-27.3-27.2-41.4-40.3c-14.1-13.2-31.2-24.6-50.4-26
		c-19.2-1.4-40.3,10.2-44.2,29.1c-3.5,16.9,7.2,33.5,19.4,45.6c12.2,12.2,26.8,22.7,34.8,37.9c13.9,26.4,1,63.4-26.4,75.4
		c-13.9,6.1-29.6,6.1-44.7,5.2c-56.6-3.6-127.1-32.2-157.3-47.4c-30.3-15.3-51.7-0.2-56.1,24.2c-4.4,24.4,13.1,48.5,35.1,59.8
		s47.6,12.8,72.4,14.1c41.8,2.1,83.5,4.2,125.3,6.3c26,1.3,55.7,4.5,70.9,25.6c12.7,17.6,10.9,42,20.8,61.4
		c14,27.3,48.8,38.2,79.3,34.7c30.5-3.4,58.5-17.8,86.9-29.3c80.1-32.3,209.2,26.4,295.8,20c63.2-4.7,83.4-75.8,145.8-84.9
		c34.5-5,69.7-12.3,98.8-31.5C1061,1597.5,1083.1,1564.1,1079.6,1529.4z M486.5,621.2c-22.8,5.1-37.7,20.7-42.7,37.1c0,0,0,0,0,0
		c-4.6-3.5-9.4-6.7-14.5-9.8c3.8-16.1,7.5-31.9,10.7-45.9c1.1-4.6,2.1-9.2,3.1-13.5c0,0,0,0,0,0c6.7-5.9,13.3-12,19.8-18.4
		C472.5,590.3,480.5,607.8,486.5,621.2z M691.3,282.6L691.3,282.6C691.3,282.6,691.3,282.6,691.3,282.6
		C691.3,282.6,691.2,282.6,691.3,282.6C691.3,282.6,691.3,282.6,691.3,282.6z M738.2,238.8c-16.2,13.3-31.8,28-46.9,43.8
		c1.9-19.4,4.8-38.6,8.5-57.8C713.8,229,726.4,233.6,738.2,238.8z M321.5,141c47.6,22.9,202.8,49.2,271.5,60.9
		c14.8,2.5,25.5,4.3,30.6,5.3c0.1,0,0.2,0.1,0.4,0.1c-2.9,26.2-10.1,51.9-22.9,74.1c-5.3,9.2-12.6,17.6-22.5,21.5
		c-7.6,3-16,3-24.2,2.9c-14.4-0.1-29.4-0.3-42.4-6.7c-10-5-17.9-13.3-26.5-20.4c-35.3-29.3-93.3-38.7-137.7-25.5c0,0,0,0,0,0
		c-5.5-23-10.8-45.7-16-67.9C328.4,170.2,324.9,155.5,321.5,141z M282.6,419.7c4.4-11.7,12.5-19.3,24.6-23.3
		c26.5-8.7,57.3,19.3,83.1,52.8c13.8,48,28.7,94.7,45.2,138.3c0,0,0,0,0,0c0,0,0,0,0,0c-0.9,4-2,8.6-3.1,13.5
		c-3.1,13.3-6.5,28.3-10.1,43.6c-5.8-3.2-11.9-6.4-18.8-9.9c-2.9-1.5-5.8-3-9-4.6c-15.6-8.1-24.1-12.7-32.2-17.2
		c-8-4.4-15.6-8.5-29.4-15.7c-0.3-0.2-0.6-0.3-0.9-0.3c0,0,0,0,0,0C326.2,586.8,262.4,472.7,282.6,419.7z M293.6,600.8
		c18.3-3,33.9,2.4,34,2.5c0.2,0.1,0.4,0.1,0.7,0.2h0c0.3,0.3,0.6,0.6,1,0.8c13.7,7.1,21.3,11.2,29.3,15.6
		c8.2,4.5,16.6,9.1,32.3,17.2c3.1,1.6,6.1,3.2,9,4.6c30,15.4,46.5,23.9,67,53c12.8,18.2,13.8,39.9,2.5,55.3
		c-12.1,16.6-36.7,18.3-55.6,14.3c-14.3-3-30.5-12.5-42.4-19.5c-3.1-1.8-5.8-3.4-8.2-4.7c-16.3-11.8-33.6-22.6-50.7-33.2l-7.1-4.4
		c-23-14.3-41.3-25.6-66.5-38.7C239.8,636.9,261.1,606.2,293.6,600.8z M168,691.5c15.6-15.7,39.9-23.2,66.6-20.4
		c0.5,0.1,1,0,1.5-0.2c24.6,12.8,42.6,24,65.2,38l7.1,4.4c16.3,10.1,32.7,20.3,48.3,31.4c0.3,0.5,0.8,0.9,1.3,1.1
		c0.3,0.2,0.7,0.4,1.1,0.6c18.3,13.3,35.1,27.9,48.4,44.9c11.2,14.3,10.4,40.4-1.7,57c-11.1,15.2-34.3,21.2-55.2,14.4
		c-7-2.3-23.1-13.7-36-22.8c-9.4-6.7-17.6-12.5-22.5-15c-0.4-0.2-0.9-0.4-1.3-0.4c-13.2-10.4-24.8-16.3-38.9-23.6
		c-4.5-2.3-9.3-4.8-14.5-7.6c-13.4-7.2-68.1-27-89.2-31.2c0,0,0,0,0,0C145.3,732,152.1,707.6,168,691.5z M379.5,1011.2
		c9,15.1,31.3,36.5,49.7,51.3c-26.6-5.8-52.7-10.6-78.2-15.4c-47.2-8.8-92.1-17.1-137.9-30.4c22.8-3.6,56.3-10.4,70.3-18.6
		c26.7-15.8,59.5-41.2,78-77.9C360.8,956.1,368.9,993.4,379.5,1011.2z M396.4,1452c-0.1-0.3-0.2-0.7-0.4-1
		c-4.2-8.2-17.2-72.7-25.2-136.6c-2.3-18-16.1-81.4-22.3-97.6c-10.3-26.8-34.2-43.5-57.3-59.7c-9.2-6.4-18.8-13.1-27.3-20.3
		c-110.5-93.8-150.4-149.3-170.8-237.7c-8.1-35.2-9-63.1-2.6-82.9c8.3-25.6,30.6-50.1,53.3-46.8c0.1,0,0.1,0,0.2,0
		c17.2,2.4,76.2,23.6,89.6,30.8c5.2,2.8,10.1,5.3,14.6,7.6c16.1,8.3,28.7,14.8,44.3,28.3c14.8,12.9,32.1,33.8,30.1,60.3
		c-0.8,11.2-8.5,26.1-16.7,32.5c-13,10.2-32.6,6.8-46.8,2.2c-14.1-4.6-28.2-12.1-43.1-20c-19.2-10.2-41-21.8-66.2-28.6
		c-2.1-0.6-4.2,0.7-4.8,2.8c-0.6,2.1,0.7,4.2,2.8,4.8c21.9,5.9,40.6,15.3,58.4,24.7c-11.5,7-22.7,14.6-33.5,22.7
		c-1.7,1.3-2.1,3.7-0.8,5.5c0.8,1,1.9,1.6,3.1,1.6c0.8,0,1.6-0.3,2.3-0.8c11.2-8.4,23-16.3,35-23.6c0.6-0.3,1-0.8,1.3-1.4
		c14.7,7.8,28.7,15.2,43,19.8c9.9,3.2,19,4.8,27.1,4.8c10.8,0,19.9-2.8,26.9-8.3c9.9-7.7,18.7-24.8,19.7-38.1
		c1.2-15.6-3.7-31.4-14-46.2c12.5,8.8,24.7,17,31.6,19.3c6.6,2.2,13.4,3.2,20,3.2c-2.1,9.2-3.3,14.8-3.7,16.7c0,0,0,0,0,0.1v0
		c0,0.1-0.1,0.2-0.1,0.2c-12.7,49.4-53.2,82.1-84.9,100.8c-16,9.5-64.1,17.6-84.8,20.1c-1.8,0.2-3.3,1.7-3.4,3.5
		c-0.2,1.8,1,3.5,2.7,4.1c52.2,16.5,102.5,25.9,155.7,35.7c31,5.8,63.1,11.8,95.7,19.3c0.3,0.1,0.6,0.1,0.9,0.1
		c1.5,0,2.9-0.9,3.6-2.3c0.7-1.7,0.2-3.8-1.4-4.8c-18.5-12.5-51.1-41.3-62.1-59.9c-15.6-26.2-20.4-82.4-14.2-115.1v0l0,0
		c0.3-1.6,1.8-8.4,4.2-19c14.5-1.9,27.6-8.8,35.7-19.9c14.2-19.4,14.9-49.2,1.5-66.4c-5.7-7.3-12.1-14.2-18.8-20.7
		c5.8,2.6,11.7,4.7,17.5,5.9c5.8,1.2,12.2,1.9,18.6,1.9c14.2,0,28.8-3.6,39.3-13.1c5.3,24.4,22.8,73.2,36.6,92.4
		c-19.8,7.5-55,41.9-59.8,86.2c-2.8,25.8,1.2,53.6,11.7,82.7c0.6,1.6,2.1,2.6,3.7,2.6c0.4,0,0.9-0.1,1.3-0.2c2-0.7,3.1-3,2.3-5
		c-10.1-28-13.9-54.6-11.3-79.3c5-46.7,47-80.7,59-80.7c0,0,0.1,0,0.1,0c1.7,0.1,3.1-0.9,3.7-2.4c0.6-1.5,0.2-3.2-1-4.3
		c-13.9-12.9-36.8-78.3-39.9-99.5c12.3-18,11-42.5-3.3-63c-7.8-11.1-15.2-19.4-22.8-26.2c0,0,0,0,0,0c3.9-20,23.1-32.6,42.1-35.8
		c0.1,0,0.2-0.1,0.4-0.1c2.5-0.4,5.1-0.7,7.6-0.7c23.8-0.8,41.5,10,54.1,32.9c4.2,7.7,8.4,16,12.3,24.8l6.3,14.1
		c44.4,99.3,86.4,193.1,76.5,300.4c-1.6,16.6-6.2,34.2-11.1,52.8c-7.5,28.6-15.3,58.1-11.3,85c2.1,14.4,21.5,64.9,45.7,122.8
		c0,0,0,0,0,0c-0.5,0.1-1,0.1-1.4,0.2c-27,4.6-51.2,22.4-65.4,45.9c-14.9,24.6-19.2,54.9-14.4,83.2c3.8,22.9,13.3,44.5,19.7,66.8
		c6.4,22.3,9.7,46.9,1.1,68.5c-8.5,21.6-31.9,38.7-54.6,33.4c-19.8-4.6-33-24.4-36.4-44.4c-3.3-20,1.1-40.4,5.3-60.2
		c4.2-19.8,8.2-40.4,3.9-60.2c-4.3-19.8-19.2-38.8-39.3-41.4c-20.1-2.6-41.6,17.7-35.1,36.9c2.9,8.8,10.4,15.2,14.9,23.2
		c9.5,16.7,2.8,41.6-15.1,48.7c-6.7,2.7-14.1,2.8-21.3,2.3c-8-0.5-15.9-1.9-23.6-4c-4.9-1.3-9.7-3-14.4-4.9
		C396.7,1453.4,396.5,1452.7,396.4,1452z"/>
	<path class="st1" d="M941.1,1396c7.1-11.1,7.1-26.7-5-36.6c-9.9-6-24-6.8-34.8,2c-10.8,8.7-30.3,39.2-20.4,50.3
		C890.8,1422.7,934,1407.1,941.1,1396z"/>
</g>
</svg>
